<svg width="66" height="22" viewBox="0 0 66 22" fill="none" xmlns="http://www.w3.org/2000/svg">
<path d="M27.9072 11.4067C27.9072 14.4881 25.4966 16.7588 22.5382 16.7588C19.5799 16.7588 17.1693 14.4881 17.1693 11.4067C17.1693 8.30361 19.5799 6.05469 22.5382 6.05469C25.4966 6.05469 27.9072 8.30361 27.9072 11.4067ZM25.5569 11.4067C25.5569 9.48115 24.1598 8.16365 22.5382 8.16365C20.9167 8.16365 19.5196 9.48115 19.5196 11.4067C19.5196 13.313 20.9167 14.6498 22.5382 14.6498C24.1598 14.6498 25.5569 13.3106 25.5569 11.4067Z" fill="white"/>
<path d="M39.4896 11.4067C39.4896 14.4881 37.079 16.7588 34.1207 16.7588C31.1624 16.7588 28.7518 14.4881 28.7518 11.4067C28.7518 8.30602 31.1624 6.05469 34.1207 6.05469C37.079 6.05469 39.4896 8.30361 39.4896 11.4067ZM37.1394 11.4067C37.1394 9.48115 35.7422 8.16365 34.1207 8.16365C32.4992 8.16365 31.102 9.48115 31.102 11.4067C31.102 13.313 32.4992 14.6498 34.1207 14.6498C35.7422 14.6498 37.1394 13.3106 37.1394 11.4067Z" fill="white"/>
<path d="M50.5895 6.37803V15.9866C50.5895 19.9391 48.2585 21.5534 45.5029 21.5534C42.9089 21.5534 41.3477 19.8185 40.7589 18.3996L42.8051 17.5478C43.1695 18.4189 44.0623 19.4469 45.5004 19.4469C47.2644 19.4469 48.3574 18.3586 48.3574 16.31V15.5402H48.2754C47.7494 16.1893 46.7359 16.7564 45.457 16.7564C42.781 16.7564 40.3294 14.4254 40.3294 11.426C40.3294 8.40495 42.781 6.05469 45.457 6.05469C46.7335 6.05469 47.747 6.62174 48.2754 7.25154H48.3574V6.38044H50.5895V6.37803ZM48.5239 11.426C48.5239 9.54148 47.2668 8.16365 45.6669 8.16365C44.0454 8.16365 42.6869 9.54148 42.6869 11.426C42.6869 13.2913 44.0454 14.6498 45.6669 14.6498C47.2668 14.6498 48.5239 13.2913 48.5239 11.426Z" fill="white"/>
<path d="M54.2693 0.746094V16.4306H51.977V0.746094H54.2693Z" fill="white"/>
<path d="M63.2022 13.1684L65.0264 14.3846C64.4376 15.2557 63.0188 16.7566 60.5672 16.7566C57.5268 16.7566 55.2562 14.4063 55.2562 11.4045C55.2562 8.22178 57.5461 6.05249 60.3042 6.05249C63.0815 6.05249 64.4401 8.2628 64.8841 9.45724L65.1278 10.0653L57.9732 13.0285C58.521 14.1023 59.3728 14.65 60.5672 14.65C61.764 14.65 62.5941 14.0613 63.2022 13.1684ZM57.5871 11.2429L62.3697 9.25696C62.1067 8.58856 61.3152 8.12285 60.3838 8.12285C59.1894 8.12285 57.5268 9.17733 57.5871 11.2429V11.2429Z" fill="white"/>
<path d="M8.49213 10.0146V7.74394H16.1438C16.2186 8.13968 16.2572 8.6078 16.2572 9.11453C16.2572 10.8181 15.7915 12.9247 14.2906 14.4256C12.8307 15.9457 10.9655 16.7565 8.49454 16.7565C3.91466 16.7565 0.0635071 13.026 0.0635071 8.44613C0.0635071 3.86625 3.91466 0.135742 8.49454 0.135742C11.0282 0.135742 12.8331 1.1299 14.1892 2.42568L12.587 4.02792C11.6146 3.1158 10.2971 2.40638 8.49213 2.40638C5.14771 2.40638 2.53201 5.1017 2.53201 8.44613C2.53201 11.7906 5.14771 14.4859 8.49213 14.4859C10.6614 14.4859 11.8969 13.6148 12.6883 12.8233C13.3302 12.1815 13.7525 11.2645 13.919 10.0122L8.49213 10.0146Z" fill="white"/>
</svg>
